#!OML:ASF E:/inclinewalkrobotboard/Project1/Captureday1/Session1/subject1.ASF
:FULLY-SPECIFIED
:DEGREES
226
root 0 0 0 1.2581836471395693 -3.5918125201563296 1.899610216979792
lowerback 12.042794673022211 0.8483002522563228 -0.10760742900976894
upperback -4.40949759529676 1.0653579497343093 -0.6024245827340863
thorax -11.572997024397782 0.48726931964328246 -0.8027517169719702
lowerneck -5.961836848728987 1.7283512639692675 4.699972612413614
upperneck 18.393801160200145 3.2872077785955227 -8.468762831129423
head 6.7315572166640685 1.2127781377234856 -3.2529402145170323
rclavicle -3.7779184980334815E-16 -2.1124742180694115E-15
rhumerus 20.789207545420297 14.832611744987835 -47.29414304455992
rradius 72.87481062504816
rwrist 27.418785768954084
rhand -34.558152232270814 -57.65215264347212
rfingers 7.12502000000002
rthumb -7.751659404695287 -87.60841487074143
lclavicle -2.2030911326601327E-15 4.1912524736540686E-16
lhumerus 21.890047437616182 -13.057910683917763 44.45077644627997
lradius 70.7385675116634
lwrist -22.502931377168423
lhand -45.095926761372084 -70.84257496853323
lfingers 7.125020000000016
lthumb -17.85753457171631 -41.89953131628795
rfemur -25.61386548754122 -2.371271340106693 16.876728185745026
rtibia 54.521588496631566
rfoot -31.337308183484247 -17.85164533924254
rtoes -19.036064754799817
lfemur -27.98741878851576 2.831986362472542 -18.3421907218195
ltibia 54.78547999792936
lfoot -33.21664375624832 -3.5341846530771694
ltoes -20.659064361732156
227
root 0 0 0 1.2581408262055986 -3.591774721434459 1.8996064984842342
lowerback 12.042771767078495 0.8483036088008165 -0.10761010838043905
upperback -4.409497025001874 1.0653612555736203 -0.6024229216978757
thorax -11.572984692316773 0.48727083923200054 -0.8027489218477308
lowerneck -5.961814813512079 1.7283631210398502 4.700003620714881
upperneck 18.393820938049327 3.287224598894091 -8.468801769239493
head 6.73155915757731 1.212784254072886 -3.2529557669700218
rclavicle -3.7798259359770893E-16 -2.1127001032581732E-15
rhumerus 20.78884833850607 14.832078063835299 -47.29376469758492
rradius 72.8745351082348
rwrist 27.419196427369485
rhand -34.55816302409203 -57.6522650283237
rfingers 7.12502000000002
rthumb -7.751673934045854 -87.60851183394206
lclavicle -2.2031938356979955E-15 4.189539868365396E-16
lhumerus 21.889980936317833 -13.057649621161325 44.450650418692106
lradius 70.73843745659288
lwrist -22.503113092438277
lhand -45.09590919723129 -70.84281459479607
lfingers 7.125020000000016
lthumb -17.85751871891762 -41.89978516114398
rfemur -25.613238022267527 -2.3714100104713403 16.87662947224136
rtibia 54.52222732158637
rfoot -31.33643316445345 -17.85115711106507
rtoes -19.036412717080204
lfemur -27.986789677789062 2.8321298142016444 -18.342567504025567
ltibia 54.7864675450691
lfoot -33.21585782378791 -3.5351755369773836
ltoes -20.659138964082764
228
root 0 0 0 1.2581214037463897 -3.591745939901114 1.8996154391032363
lowerback 12.04276880109129 0.8483025304308933 -0.10761522258747058
upperback -4.409495311340854 1.065358926508186 -0.6024246281011528
thorax -11.572982033912957 0.4872696263548522 -0.8027474188688721
lowerneck -5.961813384275303 1.7283642820027152 4.700013909462741
upperneck 18.39382502980054 3.2872259021208023 -8.468811762973226
head 6.731560130964338 1.2127847013292006 -3.252960572406745
rclavicle -3.7809375407591474E-16 -2.1127872723437924E-15
rhumerus 20.78868526093634 14.831839614868803 -47.293605893292415
rradius 72.87441009699072
rwrist 27.419371271574462
rhand -34.55816478260368 -57.65229958671149
rfingers 7.12502000000002
rthumb -7.751677696089136 -87.60853665692568
lclavicle -2.2032525843295148E-15 4.1889626989331755E-16
lhumerus 21.88993640574766 -13.057521872565088 44.45060222041242
lradius 70.73836444700895
lwrist -22.503194216496695
lhand -45.09590161425814 -70.84292551401607
lfingers 7.125020000000016
lthumb -17.85751205673236 -41.8998978773169
rfemur -25.6131084665267 -2.371459600194897 16.876574066392834
rtibia 54.522494241443
rfoot -31.33602943015312 -17.85103377398136
rtoes -19.03627253699143
lfemur -27.986635361021726 2.832271789052594 -18.34283188033681
ltibia 54.78712481927252
lfoot -33.215557524282396 -3.5355899705611873
ltoes -20.65884430608242
229
root 0 0 0 1.2581152166210838 -3.5917297701640245 1.8996231865543116
lowerback 12.042771768970196 0.848300668304715 -0.10761831932294952
upperback -4.409494091190591 1.0653560732708955 -0.6024262401376238
thorax -11.572982764258185 0.4872681854035284 -0.802746890212177
lowerneck -5.961817343376094 1.7283626756257318 4.700015272374669
upperneck 18.393824440912308 3.2872233707675136 -8.468810894567119
head 6.731560701283279 1.212783766963116 -3.2529608677555615
rclavicle -3.7813181062846094E-16 -2.112811675678433E-15
rhumerus 20.788628646762717 14.83175908129599 -47.29355695522338
rradius 72.87436634173432
rwrist 27.419426474223158
rhand -34.55816410548971 -57.652305029407195
rfingers 7.12502000000002
rthumb -7.751677870237227 -87.60853719090551
lclavicle -2.2032673023372317E-15 4.1888440718228184E-16
lhumerus 21.889917348272533 -13.057479873921109 44.45059133247861
lradius 70.73833690164943
lwrist -22.503218651815786
lhand -45.09589843468804 -70.84295787630131
lfingers 7.125020000000016
lthumb -17.857509271693164 -41.89992870430807
rfemur -25.613150450069575 -2.3714682765231014 16.876554277354884
rtibia 54.52256505779998
rfoot -31.335907256018015 -17.851043402193863
rtoes -19.036077826488917
lfemur -27.986640486850654 2.8323498497714428 -18.34295386021588
ltibia 54.78742903935783
lfoot -33.21548007178379 -3.535710064286528
ltoes -20.658612143182033
